<svg xmlns="http://www.w3.org/2000/svg" width="1024" height="1024" viewBox="0 0 1024 1024">
  <defs>
    <linearGradient id="a">
      <stop offset="0%" stop-color="#ff9600"/>
      <stop offset="100%" stop-color="#fff000"/>
    </linearGradient>
    <linearGradient id="b">
      <stop offset="0%" stop-color="#6ddd6d"/>
      <stop offset="100%" stop-color="#00aeff"/>
    </linearGradient>
  </defs>
  <path fill="url(#a)" d="M399.6 690a155 155 0 0 1-1.2-51C315.6 607.6 259 544 259 470.5c0-105 115.3-190 257.6-190q7.8 0 15.4.4a337.3 337.3 0 0 1 73.4 11.2 124 124 0 0 0-1.6-35.8 122.4 122.4 0 0 0-19.2-45.4 485.4 485.4 0 0 0-68-4.8C318.6 206 158 324.4 158 470.4c0 45.3 15.5 88 42.8 125.3A24 24 0 0 1 205 614c-6.2 35.3-9.2 86 2.6 151.5 1.7 9.4 15.6 52.7 19.8 45.2 11.5-20.6 36.5-65 63.5-109a24.3 24.3 0 0 1 31.2-9.2 424 424 0 0 0 88 30.4 148.5 148.5 0 0 1-10.6-33z"/>
  <path fill="url(#b)" d="M819.2 604.5a24.4 24.4 0 0 0-4.6 21.3c9 34.3 15.7 83 10.3 146.6-1 9.5-10.7 54-15.6 46.8-14.7-21.4-48.5-70-83-115.3a24.2 24.2 0 0 0-29.2-7.5c-54.6 24.8-119 39-187.8 39a485.4 485.4 0 0 1-68-4.6 122.4 122.4 0 0 1-19.2-45.6 124 124 0 0 1-1.6-35.8 340.3 340.3 0 0 0 88.8 11.6c142.3 0 257.6-85 257.6-190 0-73.4-56.6-137-139.4-168.7a155 155 0 0 0-1.2-51 148.5 148.5 0 0 0-10.5-32.8c146 33.5 252 134 252 252.5 0 48.6-17.8 94.2-48.8 133.3z"/>
  <path fill="#fff" d="M632.2 423.4a44.8 44.8 0 1 0 45 44.8 45 45 0 0 0-45-44.8zm-119.2 0a44.8 44.8 0 1 0 45 44.8 45 45 0 0 0-45-44.8zm-119.2 0a44.8 44.8 0 1 0 45 44.8 45 45 0 0 0-45-44.8z"/>
</svg>